<!-- This Source Code Form is subject to the terms of the Mozilla Public
   - License, v. 2.0. If a copy of the MPL was not distributed with this
   - file, You can obtain one at http://mozilla.org/MPL/2.0/. -->
<svg xmlns="http://www.w3.org/2000/svg" viewBox="0 0 16 16" width="16" height="16" fill="context-fill" fill-opacity="context-fill-opacity">
  <path d="M7.625.125a7.5 7.5 0 1 0 0 15 7.5 7.5 0 0 0 0-15zM11 8.25l-2.45 0-.3.3 0 2.45A.625.625 0 0 1 7 11l0-2.45-.3-.3-2.45 0a.625.625 0 0 1 0-1.25L6.7 7l.3-.3 0-2.45a.625.625 0 0 1 1.25 0l0 2.45.3.3L11 7a.625.625 0 0 1 0 1.25z"/>
</svg>
