<!-- This Source Code Form is subject to the terms of the Mozilla Public
   - License, v. 2.0. If a copy of the MPL was not distributed with this
   - file, You can obtain one at http://mozilla.org/MPL/2.0/. -->
<svg xmlns="http://www.w3.org/2000/svg" viewBox="0 0 16 16" width="16" height="16" fill="context-fill" fill-opacity="context-fill-opacity">
  <path d="M1.625 6a.625.625 0 0 1 0-1.25l4.488 0a.625.625 0 0 1 0 1.25L1.625 6z"/>
  <path d="m12.375 10-10.75 0a.625.625 0 0 1 0-1.25l10.75 0a.625.625 0 0 1 0 1.25z"/>
  <path d="m12.375 14-10.75 0a.625.625 0 0 1 0-1.25l10.75 0a.625.625 0 0 1 0 1.25z"/>
  <path d="M16.971 5.266 13.66-.507c-.454-.791-1.615-.791-2.069 0L8.28 5.266C7.834 6.041 8.406 7 9.314 7l6.623 0c.907 0 1.479-.959 1.034-1.734zM13.25 3.374a.625.625 0 0 1-1.25 0l0-1.748a.625.625 0 0 1 1.25 0l0 1.748zM12.625 6a.625.625 0 1 1 0-1.25.625.625 0 0 1 0 1.25z"/>
</svg>
