<!-- This Source Code Form is subject to the terms of the Mozilla Public
   - License, v. 2.0. If a copy of the MPL was not distributed with this
   - file, You can obtain one at http://mozilla.org/MPL/2.0/. -->
<svg xmlns="http://www.w3.org/2000/svg" viewBox="0 0 12 12" width="12" height="12" fill-opacity="context-fill-opacity">
  <circle fill="context-fill" cx="6" cy="6" r="6"/>
  <path fill="context-stroke" d="M6.7 2.6v6.8c0 .7-.9 1-1.3.5l-1.7-2H2.2c-.4 0-.7-.3-.7-.8V4.9c0-.4.3-.8.7-.8h1.5l1.7-2c.5-.5 1.3-.2 1.3.5zm3.4 3.6v-.4l.7-.7c.2-.2.2-.5 0-.7s-.5-.2-.7 0l-.7.7h-.3l-.7-.7c-.2-.2-.5-.2-.7 0s-.2.5 0 .7l.7.7v.3l-.8.8c-.2.2-.2.5 0 .7.1.1.3.2.4.2s.3 0 .4-.1l.7-.7h.3l.7.7c.1.1.2.1.4.1s.3 0 .4-.1c.2-.2.2-.5 0-.7l-.8-.8z"/>
</svg>
