<!-- This Source Code Form is subject to the terms of the Mozilla Public
   - License, v. 2.0. If a copy of the MPL was not distributed with this
   - file, You can obtain one at http://mozilla.org/MPL/2.0/. -->
<svg xmlns="http://www.w3.org/2000/svg" viewBox="0 0 12 12" width="12" height="12" fill="context-fill" fill-opacity="context-fill-opacity">
  <path d="M2.53 7.399.337 5.577a.925.925 0 0 1-.29-1.004.924.924 0 0 1 .824-.64l2.834-.183.385-.288L5.136.834C5.278.478 5.617.248 6 .248s.722.23.864.585l0 .001L7.91 3.462l.384.287 2.835.183a.924.924 0 0 1 .824.64.925.925 0 0 1-.29 1.004L9.474 7.394l-.138.456.698 2.742a.923.923 0 0 1-.355.981.93.93 0 0 1-1.043.035l-2.398-1.516-.477 0-2.397 1.516a.93.93 0 0 1-1.399-1.016l.696-2.735-.131-.458z"/>
</svg>
