<!-- This Source Code Form is subject to the terms of the Mozilla Public
   - License, v. 2.0. If a copy of the MPL was not distributed with this
   - file, You can obtain one at http://mozilla.org/MPL/2.0/. -->
<svg xmlns="http://www.w3.org/2000/svg" viewBox="0 0 12 12" width="12" height="12" fill="context-fill" fill-opacity="context-fill-opacity">
  <path d="M6 0a6 6 0 1 0 0 12A6 6 0 0 0 6 0zm2.104 7.396a.5.5 0 0 1-.708.707L6.142 6.849l-.283-.001-1.255 1.255a.5.5 0 1 1-.708-.706l1.255-1.255 0-.283-1.255-1.255a.5.5 0 0 1 .707-.707l1.255 1.255.283 0 1.255-1.255a.5.5 0 0 1 .707.707L6.849 5.859l0 .283 1.255 1.254z"/>
</svg>
