<!-- This Source Code Form is subject to the terms of the Mozilla Public
   - License, v. 2.0. If a copy of the MPL was not distributed with this
   - file, You can obtain one at http://mozilla.org/MPL/2.0/. -->
<svg xmlns="http://www.w3.org/2000/svg" viewBox="0 0 16 16" width="16" height="16" fill="context-fill" fill-opacity="context-fill-opacity">
  <path d="M10 12a2 2 0 0 1-2 2l-6 0a2 2 0 0 1-2-2l0-8a2 2 0 0 1 2-2l6 0a2 2 0 0 1 2 2l0 1.375a.625.625 0 0 1-1.25 0l0-1.525-.6-.6-6.3 0-.6.6 0 8.3.6.6 6.3 0 .6-.6 0-1.212a.625.625 0 0 1 1.25 0L10 12z"/>
  <path d="M5.275 8.8a.625.625 0 0 1 0-1.25L12 7.545l0-2.056a.5.5 0 0 1 .854-.354l2.823 2.823 0 .424-2.823 2.823a.5.5 0 0 1-.854-.352l0-2.056-6.725.003z"/>
</svg>
