<!-- This Source Code Form is subject to the terms of the Mozilla Public
   - License, v. 2.0. If a copy of the MPL was not distributed with this
   - file, You can obtain one at http://mozilla.org/MPL/2.0/. -->
<svg xmlns="http://www.w3.org/2000/svg" viewBox="0 0 20 20" width="20" height="20" fill="context-fill" fill-opacity="context-fill-opacity">
  <path d="M15.5 5 13 5l0-2.5a2.5 2.5 0 1 0-5 0L8 5 4.5 5A2.5 2.5 0 0 0 2 7.5l0 1.9.6.6 1.893 0a2 2 0 0 1 0 4L2.6 14l-.6.6 0 2.9A2.5 2.5 0 0 0 4.5 20l11 0a2.5 2.5 0 0 0 2.5-2.5l0-10A2.5 2.5 0 0 0 15.5 5z"/>
</svg>
