<!-- This Source Code Form is subject to the terms of the Mozilla Public
   - License, v. 2.0. If a copy of the MPL was not distributed with this
   - file, You can obtain one at http://mozilla.org/MPL/2.0/. -->
<svg xmlns="http://www.w3.org/2000/svg" viewBox="0 0 16 16" width="16" height="16" fill="context-fill" fill-opacity="context-fill-opacity">
  <path d="m6 10.5 0 .5c0 1.1-.9 2-2 2-1.1 0-2-.9-2-2l0-.5a.5.5 0 0 1 .5-.5l3 0a.5.5 0 0 1 .5.5z"/>
  <path d="m9.517 7.857 2.893 2.893.753 0 .49-1.18c.098-.245.217-.478.363-.698.247-.371.655-1.05.79-1.658C16.074 1.5 10.755-.153 9.339 5.488c-.157.625-.135 1.652.133 2.239.021.044.028.087.045.13z"/>
  <path d="M14.817 14.933 1.067 1.183a.626.626 0 0 0-.885.885l.946.946a7.316 7.316 0 0 0-.119 1.747c.027.622.312 1.361.49 1.77a3.8 3.8 0 0 1 .237.75l.309 1.474 3.503 0 .177-1.145 4.39 4.39-.545 0a.5.5 0 0 0-.5.5l0 .5c0 1.1.9 2 2 2 .562 0 1.065-.241 1.426-.619l1.436 1.436a.625.625 0 0 0 .885-.884z"/>
  <path d="M6.692 4.01C6.417.172 3.912-.803 2.319.659l4.298 4.298c.062-.338.095-.675.075-.947z"/>
</svg>
