<!-- This Source Code Form is subject to the terms of the Mozilla Public
   - License, v. 2.0. If a copy of the MPL was not distributed with this
   - file, You can obtain one at http://mozilla.org/MPL/2.0/. -->
<svg xmlns="http://www.w3.org/2000/svg" viewBox="0 0 16 16" width="16" height="16" fill="context-fill" fill-opacity="context-fill-opacity">
  <path d="M5.902 12.402 4.304 14l1.989 0a.5.5 0 0 0 .354-.854l-.745-.744z"/>
  <path d="m2.889 14 2.305-2.305-.002-.002 7.5-7.5.002.002L15 1.889l0-.589-.3-.3-3.993 0a.5.5 0 0 0-.354.854l1.454 1.454-7.5 7.5-1.454-1.454A.5.5 0 0 0 2 9.707L2 13.7l.3.3.589 0z"/>
  <path d="m13.402 4.902.745.745A.5.5 0 0 0 15 5.293l0-1.99-1.598 1.599z"/>
</svg>
