<!-- This Source Code Form is subject to the terms of the Mozilla Public
   - License, v. 2.0. If a copy of the MPL was not distributed with this
   - file, You can obtain one at http://mozilla.org/MPL/2.0/. -->
<svg xmlns="http://www.w3.org/2000/svg" viewBox="0 0 20 20" width="20" height="20" fill="context-fill" fill-opacity="context-fill-opacity">
  <path d="M9.75 12a.75.75 0 0 1-.75-.75l0-.959c0-.645.452-1.206 1.074-1.336a1.6 1.6 0 0 0 1.27-1.561 1.596 1.596 0 0 0-3.101-.522.75.75 0 1 1-1.418-.49A3.097 3.097 0 0 1 9.75 4.3a3.098 3.098 0 0 1 3.094 3.094 3.107 3.107 0 0 1-2.344 3.002l0 .854a.75.75 0 0 1-.75.75z"/>
  <path d="m10.2 15-.9 0-.3-.3 0-.9.3-.3.9 0 .3.3 0 .9z"/>
  <path d="M9.75 2c4.411 0 8 3.589 8 8s-3.589 8-8 8-8-3.589-8-8 3.589-8 8-8m0-1.5C4.503.5.25 4.753.25 10s4.253 9.5 9.5 9.5 9.5-4.253 9.5-9.5S14.997.5 9.75.5z"/>
</svg>
