<!-- This Source Code Form is subject to the terms of the Mozilla Public
   - License, v. 2.0. If a copy of the MPL was not distributed with this
   - file, You can obtain one at http://mozilla.org/MPL/2.0/. -->
<svg xmlns="http://www.w3.org/2000/svg" viewBox="0 0 20 20" width="20" height="20" fill="context-fill" fill-opacity="context-fill-opacity">
  <path d="M19.302 8.872 11.839.769c-.943-1.025-2.734-1.025-3.678 0L.698 8.872a.75.75 0 0 0 1.103 1.016L2 9.672 2 16.5C2 17.879 3.122 19 4.5 19l11 0c1.378 0 2.5-1.121 2.5-2.5l0-6.828.198.215a.747.747 0 0 0 1.06.044.748.748 0 0 0 .044-1.059zM11.5 17.5l-3 0 0-5.4.6-.6 1.8 0 .6.6 0 5.4zm5-.8-.8.8-2.7 0 0-5c0-1.379-1.122-2.5-2.5-2.5l-1 0A2.503 2.503 0 0 0 7 12.5l0 5-2.7 0-.8-.8 0-8.657 5.765-6.259a1.023 1.023 0 0 1 1.471 0l5.765 6.259 0 8.657z"/>
</svg>
