<!-- This Source Code Form is subject to the terms of the Mozilla Public
   - License, v. 2.0. If a copy of the MPL was not distributed with this
   - file, You can obtain one at http://mozilla.org/MPL/2.0/. -->
<svg xmlns="http://www.w3.org/2000/svg" viewBox="0 0 16 16" width="16" height="16" fill="context-fill" fill-opacity="context-fill-opacity">
  <path d="M6.637 2.982c.319-.068.649-.107.988-.107a4.756 4.756 0 0 1 4.75 4.75c0 .339-.039.669-.107.988l.997.997c.154-.436.277-.885.326-1.36l.909 0a.625.625 0 0 0 0-1.25l-.908 0A6.01 6.01 0 0 0 8.25 1.658c0-.45 0-.908 0-.908A.625.625 0 0 0 7 .75c0 0 0 .458 0 .908a5.923 5.923 0 0 0-1.36.326l.997.998z"/>
  <path d="M14.817 12.933 3.067 1.183a.626.626 0 0 0-.885.885l1.274 1.274A5.934 5.934 0 0 0 1.658 7L.75 7a.625.625 0 0 0 0 1.25l.908 0A6.01 6.01 0 0 0 7 13.592l0 .908a.625.625 0 0 0 1.25 0l0-.908a5.934 5.934 0 0 0 3.658-1.798l2.024 2.024a.624.624 0 0 0 .885-.001.627.627 0 0 0 0-.884zm-7.192-.558a4.756 4.756 0 0 1-4.75-4.75c0-1.34.565-2.541 1.464-3.4L5.745 5.63a2.714 2.714 0 0 0-.87 1.995 2.75 2.75 0 0 0 2.75 2.75c.79 0 1.496-.335 1.995-.87l1.406 1.406a4.69 4.69 0 0 1-3.401 1.464z"/>
</svg>
