<!-- This Source Code Form is subject to the terms of the Mozilla Public
   - License, v. 2.0. If a copy of the MPL was not distributed with this
   - file, You can obtain one at http://mozilla.org/MPL/2.0/. -->
<svg xmlns="http://www.w3.org/2000/svg" viewBox="0 0 16 16" width="16" height="16" fill="context-fill" fill-opacity="context-fill-opacity">
  <path d="M5.287 3.635A2.744 2.744 0 0 1 8 1.25 2.752 2.752 0 0 1 10.75 4l0 3-2.098 0 1.25 1.25 2.248 0 .6.6 0 2.248 1.25 1.25L14 9a2 2 0 0 0-2-2l0-3c0-2.206-1.794-4-4-4-1.716 0-3.17 1.091-3.737 2.611l1.024 1.024z"/>
  <path d="M14.818 14.933 2.067 2.183a.625.625 0 1 0-.884.885L4 5.884 4 7a2 2 0 0 0-2 2l0 5a2 2 0 0 0 2 2l8 0a1.97 1.97 0 0 0 1.462-.653l.471.471a.623.623 0 0 0 .884-.001.626.626 0 0 0 .001-.884zm-2.668-.183-8.3 0-.6-.6 0-5.3.6-.6 2.516 0 6.142 6.142-.358.358z"/>
</svg>
