<!-- This Source Code Form is subject to the terms of the Mozilla Public
   - License, v. 2.0. If a copy of the MPL was not distributed with this
   - file, You can obtain one at http://mozilla.org/MPL/2.0/. -->
<svg xmlns="http://www.w3.org/2000/svg" viewBox="0 0 12 12" width="12" height="12" fill="context-fill" fill-opacity="context-fill-opacity">
  <circle cx="6" cy="6" r="5.5" fill="context-stroke" />
  <path d="M1.9.6c-.2-.2-.5-.2-.7 0s-.2.6-.1.8l.9.8C1.1 3.2.5 4.5.5 6 .5 9 3 11.5 6 11.5c1.5 0 2.8-.6 3.8-1.5l.9.9c0 .1.2.1.3.1s.3 0 .4-.1c.2-.2.2-.5 0-.7L1.9.6zM6 10.5c-2.5 0-4.5-2-4.5-4.5 0-1.2.5-2.3 1.2-3.1l1.5 1.5V8c0 .4.4.6.7.4L7 7.2l2 2c-.7.8-1.8 1.3-3 1.3zm0-9c2.5 0 4.5 2 4.5 4.5 0 .6-.1 1.1-.3 1.6l.8.7c.3-.7.5-1.5.5-2.3C11.5 3 9 .5 6 .5c-.8 0-1.6.2-2.3.5l.8.8c.4-.2.9-.3 1.5-.3z"/>
</svg>
