<!-- This Source Code Form is subject to the terms of the Mozilla Public
   - License, v. 2.0. If a copy of the MPL was not distributed with this
   - file, You can obtain one at http://mozilla.org/MPL/2.0/. -->
<svg xmlns="http://www.w3.org/2000/svg" viewBox="0 0 16 16" width="16" height="16" fill="context-fill" fill-opacity="context-fill-opacity">
  <path d="M11.5 4.25c.689 0 1.25.561 1.25 1.25s-.561 1.25-1.25 1.25-1.25-.561-1.25-1.25.561-1.25 1.25-1.25m0-1.25a2.5 2.5 0 1 0 0 5 2.5 2.5 0 0 0 0-5z"/>
  <path d="M8 5.5c0-.171.027-.335.05-.5L2.625 5a.625.625 0 0 0 0 1.25l5.46 0A3.497 3.497 0 0 1 8 5.5z"/>
  <path d="M4.5 9.25c.689 0 1.25.561 1.25 1.25s-.561 1.25-1.25 1.25-1.25-.561-1.25-1.25.561-1.25 1.25-1.25M4.5 8a2.5 2.5 0 1 0 0 5 2.5 2.5 0 0 0 0-5z"/>
  <path d="M13.375 10 7.95 10c.023.165.05.329.05.5 0 .258-.032.508-.085.75l5.46 0a.625.625 0 0 0 0-1.25z"/>
</svg>
