<!-- This Source Code Form is subject to the terms of the Mozilla Public
   - License, v. 2.0. If a copy of the MPL was not distributed with this
   - file, You can obtain one at http://mozilla.org/MPL/2.0/. -->
<svg xmlns="http://www.w3.org/2000/svg" viewBox="0 0 16 16" width="16" height="16" fill="context-fill" fill-opacity="context-fill-opacity">
  <path d="m6.01 10.166 0 2.07a1.371 1.371 0 0 0 1.376 1.376c.357 0 .708-.14.972-.403l2.483-2.484 4.093 4.093a.625.625 0 0 0 .884-.884l-4.093-4.093 2.483-2.484c.395-.395.513-.982.299-1.498s-.712-.85-1.271-.85l-2.072 0-.624-.242-2.993-2.994.707-.707A.625.625 0 0 0 7.37.182L1.183 6.37a.625.625 0 0 0 .884.884l.705-.708 2.997 2.996.241.624z"/>
</svg>
