<!-- This Source Code Form is subject to the terms of the Mozilla Public
   - License, v. 2.0. If a copy of the MPL was not distributed with this
   - file, You can obtain one at http://mozilla.org/MPL/2.0/. -->
<svg xmlns="http://www.w3.org/2000/svg" viewBox="0 0 12 12" width="12" height="12" fill="context-fill" fill-opacity="context-fill-opacity">
  <path d="m11.214 10.507-2.95-2.95 1.844-1.844A.998.998 0 0 0 9.4 4.006l-1.567 0-.48-.178c0 0-2.12-2.117-2.126-2.122l.492-.492a.5.5 0 0 0-.707-.707L.506 5.012a.5.5 0 0 0 .708.708l.486-.488c.005.005 2.136 2.141 2.136 2.141L4 7.835l.001 1.57a.996.996 0 0 0 1.001 1.001c.26 0 .515-.102.706-.294l1.849-1.849 2.95 2.95a.498.498 0 0 0 .708 0 .5.5 0 0 0-.001-.706z"/>
  <path d="M5.366.36a.5.5 0 0 1 .354.853l-.493.493c.005.005 2.126 2.122 2.126 2.122l.481.178 1.566 0a.998.998 0 0 1 .707 1.707L8.263 7.557l2.95 2.95a.5.5 0 0 1-.708.707l-2.95-2.95-1.849 1.849a.995.995 0 0 1-1.09.217.996.996 0 0 1-.617-.924L4 7.835l-.163-.461c0 0-2.131-2.136-2.136-2.141l-.487.486a.5.5 0 1 1-.708-.707L5.012.506A.502.502 0 0 1 5.366.36m0-1c-.401 0-.777.156-1.061.439L-.201 4.305a1.501 1.501 0 0 0 1.878 2.32c.454.455 1.021 1.022 1.292 1.295L3 8.007l.001 1.399c0 .811.485 1.537 1.235 1.847.246.102.503.153.766.153.535 0 1.037-.209 1.415-.589l1.14-1.14L9.8 11.92c.283.283.66.439 1.061.439s.777-.156 1.061-.439a1.501 1.501 0 0 0 0-2.121L9.679 7.556l1.137-1.137a1.996 1.996 0 0 0 .434-2.18 1.995 1.995 0 0 0-1.848-1.235l-1.387 0-.108-.04A415.79 415.79 0 0 1 6.62 1.683a1.503 1.503 0 0 0-.193-1.884A1.494 1.494 0 0 0 5.366-.64z"/>
</svg>
