<!-- This Source Code Form is subject to the terms of the Mozilla Public
   - License, v. 2.0. If a copy of the MPL was not distributed with this
   - file, You can obtain one at http://mozilla.org/MPL/2.0/. -->
<svg xmlns="http://www.w3.org/2000/svg" viewBox="0 0 16 16" width="16" height="16" fill="context-fill" fill-opacity="context-fill-opacity">
  <path d="M9.707 7 13.7 7l.3-.3 0-3.993a.5.5 0 0 0-.854-.354l-1.173 1.173A5.936 5.936 0 0 0 8 2a6 6 0 1 0 0 12 6.003 6.003 0 0 0 5.728-4.208l-.003-.001a.626.626 0 0 0-1.205-.333c0 .001 0 .003 0 .004a4.758 4.758 0 0 1-4.519 3.287c-2.619 0-4.75-2.131-4.75-4.75S5.381 3.25 8 3.25c1.183 0 2.242.459 3.071 1.179L9.354 6.146A.5.5 0 0 0 9.707 7z"/>
</svg>
