<!-- This Source Code Form is subject to the terms of the Mozilla Public
   - License, v. 2.0. If a copy of the MPL was not distributed with this
   - file, You can obtain one at http://mozilla.org/MPL/2.0/. -->
<svg xmlns="http://www.w3.org/2000/svg" viewBox="0 0 16 16" width="16" height="16" fill="context-fill" fill-opacity="context-fill-opacity">
  <path d="m5.911 10.973-3.845 3.844a.62.62 0 0 1-.883-.001.625.625 0 0 1 .001-.884L5.017 10.1l-.006-.427A5.5 5.5 0 1 1 15 6.5 5.5 5.5 0 0 1 9.5 12a5.464 5.464 0 0 1-3.187-1.022l-.402-.005zM9.5 10.75c2.343 0 4.25-1.907 4.25-4.25S11.843 2.25 9.5 2.25 5.25 4.157 5.25 6.5s1.907 4.25 4.25 4.25z"/>
</svg>
