<!-- This Source Code Form is subject to the terms of the Mozilla Public
   - License, v. 2.0. If a copy of the MPL was not distributed with this
   - file, You can obtain one at http://mozilla.org/MPL/2.0/. -->
<svg xmlns="http://www.w3.org/2000/svg" viewBox="0 0 12 12" width="12" height="12" fill="context-fill" fill-opacity="context-fill-opacity">
  <path d="m7.561 8.268 2.585 2.585a.5.5 0 1 0 .708-.706L8.268 7.561l0-.283A3.947 3.947 0 0 0 9 5c0-2.206-1.794-4-4-4S1 2.794 1 5s1.794 4 4 4c.85 0 1.63-.277 2.277-.733l.284.001zM2 5c0-1.654 1.346-3 3-3s3 1.346 3 3-1.346 3-3 3-3-1.346-3-3z"/>
</svg>
