<!-- This Source Code Form is subject to the terms of the Mozilla Public
   - License, v. 2.0. If a copy of the MPL was not distributed with this
   - file, You can obtain one at http://mozilla.org/MPL/2.0/. -->
<svg xmlns="http://www.w3.org/2000/svg" viewBox="0 0 16 16" width="16" height="16" fill="context-fill" fill-opacity="context-fill-opacity">
  <circle cx="7.5" cy="7.5" r="2.25"/>
  <path d="M8 0a8 8 0 1 0 0 16A8 8 0 0 0 8 0zm3.818 11.817a.625.625 0 0 1-.885 0L9.646 10.53l-.416.008c-.51.293-1.1.462-1.73.462A3.5 3.5 0 1 1 11 7.5c0 .627-.167 1.213-.456 1.722l-.003.434 1.277 1.277a.627.627 0 0 1 0 .884z"/>
</svg>
