<!-- This Source Code Form is subject to the terms of the Mozilla Public
   - License, v. 2.0. If a copy of the MPL was not distributed with this
   - file, You can obtain one at http://mozilla.org/MPL/2.0/. -->
<svg xmlns="http://www.w3.org/2000/svg" viewBox="0 0 20 20" width="20" height="20" fill="context-fill" fill-opacity="context-fill-opacity">
  <path d="M1.53 1.22A.75.75 0 1 0 .469 2.281l1.6 1.6a3.054 3.054 0 0 0-1.16 2.991l.708 3.845c.271 1.481.769 2.776 1.478 3.85 1.43 2.169 3.401 3.98 5.552 5.102.419.216.887.331 1.353.331.468 0 .937-.115 1.355-.333 1.332-.695 2.589-1.66 3.696-2.805l2.419 2.419a.748.748 0 0 0 1.06 0 .75.75 0 0 0 0-1.061l-17-17zm9.133 17.117-1.324 0c-1.927-1.005-3.7-2.637-4.992-4.597-.597-.904-1.02-2.013-1.255-3.295l-.754-4.077.506-1.237.31-.166 10.839 10.839c-.998 1.037-2.132 1.907-3.33 2.533z"/>
  <path d="M17.533 3.683 11.431.36a3.029 3.029 0 0 0-2.867.004L4.795 2.378 5.907 3.49l3.609-1.934.979 0 6.559 3.572.61 1.24-.753 4.087c-.21 1.135-.575 2.125-1.071 2.968l1.096 1.096c.692-1.062 1.182-2.336 1.45-3.79l.705-3.792a3.052 3.052 0 0 0-1.558-3.254z"/>
</svg>
