<!-- This Source Code Form is subject to the terms of the Mozilla Public
   - License, v. 2.0. If a copy of the MPL was not distributed with this
   - file, You can obtain one at http://mozilla.org/MPL/2.0/. -->
<svg xmlns="http://www.w3.org/2000/svg" viewBox="0 0 20 20" width="20" height="20" fill="context-fill" fill-opacity="context-fill-opacity">
  <path d="m10 2.7 0-2.2c0-.4.5-.7.9-.4L13.7 3l0 .9-2.9 2.8c-.3.3-.8.1-.8-.3l0-2.2c-3.2 0-5.8 2.6-5.8 5.8 0 1.4.5 2.7 1.4 3.8.3.3.2.8-.1 1.1-.2.1-.3.1-.5.1-.2 0-.4-.1-.6-.3-1.1-1.3-1.7-3-1.7-4.8C2.7 6 6 2.7 10 2.7z"/>
  <path d="m10 13.6 0 2.2c3.2 0 5.8-2.6 5.8-5.8 0-1.4-.5-2.7-1.4-3.8-.3-.3-.2-.8.1-1.1.3-.3.8-.2 1.1.1 1.1 1.3 1.7 3 1.7 4.7 0 4-3.3 7.3-7.3 7.3l0 2.2c0 .4-.5.7-.9.4L6.3 17l0-.9 2.9-2.8c.3-.3.8-.1.8.3z"/>
</svg>
