<!-- This Source Code Form is subject to the terms of the Mozilla Public
   - License, v. 2.0. If a copy of the MPL was not distributed with this
   - file, You can obtain one at http://mozilla.org/MPL/2.0/. -->
<svg xmlns="http://www.w3.org/2000/svg" viewBox="0 0 16 16" width="16" height="16" fill="context-fill" fill-opacity="context-fill-opacity">
  <path d="M7.8 2.2c.1 0 .2 0 .2 0L8 .5c0-.4.5-.7.9-.4l2.7 2.7 0 .4-2.7 2.7c-.4.3-.9 0-.9-.4l0-2c-.1 0-.2 0-.2 0-2.5 0-4.5 2-4.5 4.5 0 .9.3 1.8.8 2.5.2.3.1.7-.2.9-.1.1-.2.1-.4.1-.2 0-.4-.1-.5-.3-.6-1-1-2.1-1-3.2 0-3.2 2.6-5.8 5.8-5.8z"/>
  <path d="M7.1 10.1c.3-.3.9-.1.9.4l0 2c.1 0 .2 0 .2 0 2.5 0 4.5-2 4.5-4.5 0-.9-.3-1.8-.8-2.5-.2-.3-.1-.7.2-.9.3-.2.7-.1.9.2.7 1 1 2.1 1 3.2 0 3.2-2.6 5.8-5.8 5.8-.1 0-.2 0-.2 0l0 1.8c0 .4-.5.7-.9.4l-2.7-2.7 0-.4 2.7-2.8z"/>
</svg>
