<!-- This Source Code Form is subject to the terms of the Mozilla Public
   - License, v. 2.0. If a copy of the MPL was not distributed with this
   - file, You can obtain one at http://mozilla.org/MPL/2.0/. -->
<svg xmlns="http://www.w3.org/2000/svg" viewBox="0 0 12 12" width="12" height="12" fill="context-fill" fill-opacity="context-fill-opacity">
  <path d="M3.088 3.839a.5.5 0 0 0-.811-.586A4.522 4.522 0 0 0 1.5 5.782c0 2.481 2.019 4.5 4.5 4.5L6 11.8a.2.2 0 0 0 .341.141l1.944-1.944 0-.429-1.944-1.944A.2.2 0 0 0 6 7.765l0 1.517a3.504 3.504 0 0 1-2.912-5.443z"/>
  <path d="M8.912 8.161a.5.5 0 1 0 .81.586 4.515 4.515 0 0 0 .778-2.529c0-2.481-2.019-4.5-4.5-4.5L6 .2a.2.2 0 0 0-.341-.141L3.714 2.003l0 .429 1.944 1.944A.2.2 0 0 0 6 4.235l0-1.517a3.504 3.504 0 0 1 2.912 5.443z"/>
</svg>
