<!-- This Source Code Form is subject to the terms of the Mozilla Public
   - License, v. 2.0. If a copy of the MPL was not distributed with this
   - file, You can obtain one at http://mozilla.org/MPL/2.0/. -->
<svg xmlns="http://www.w3.org/2000/svg" viewBox="0 0 16 16" width="16" height="16" fill="context-fill" fill-opacity="context-fill-opacity">
  <path d="M8.25 2.25c-.084 0-.167.012-.25.016L8 .499a.498.498 0 0 0-.851-.352L4.498 2.798l0 .404 2.651 2.651A.498.498 0 0 0 8 5.501l0-1.985c.083-.005.166-.016.25-.016 2.481 0 4.5 2.019 4.5 4.5 0 .907-.269 1.781-.776 2.528a.625.625 0 0 0 1.034.703A5.733 5.733 0 0 0 14 8a5.756 5.756 0 0 0-5.75-5.75z"/>
  <path d="M8.851 10.147a.498.498 0 0 0-.851.352l0 1.985c-.083.005-.166.016-.25.016A4.505 4.505 0 0 1 3.25 8c0-.911.271-1.789.783-2.538a.623.623 0 0 0-.163-.868.623.623 0 0 0-.868.163A5.72 5.72 0 0 0 2 8a5.756 5.756 0 0 0 5.75 5.75c.084 0 .166-.012.25-.016l0 1.767c0 .444.537.666.851.352l2.651-2.651 0-.404-2.651-2.651z"/>
</svg>
