<!-- This Source Code Form is subject to the terms of the Mozilla Public
   - License, v. 2.0. If a copy of the MPL was not distributed with this
   - file, You can obtain one at http://mozilla.org/MPL/2.0/. -->
<svg xmlns="http://www.w3.org/2000/svg" viewBox="0 0 12 12" width="12" height="12" fill="context-fill" fill-opacity="context-fill-opacity">
  <path d="M6 1.5 6-.017a.2.2 0 0 0-.341-.141L3.714 1.786l0 .429 1.944 1.944A.2.2 0 0 0 6 4.017L6 2.5a3.504 3.504 0 0 1 3.334 4.568 3.501 3.501 0 0 1-.604 1.123.5.5 0 1 0 .779.626A4.47 4.47 0 0 0 10.5 6c0-2.481-2.019-4.5-4.5-4.5z"/>
  <path d="M6 7.983 6 9.5C4.07 9.5 2.5 7.93 2.5 6c0-.805.266-1.562.768-2.188a.5.5 0 0 0-.78-.625A4.508 4.508 0 0 0 1.5 6c0 2.481 2.019 4.5 4.5 4.5l0 1.517a.2.2 0 0 0 .341.141l1.944-1.944 0-.429-1.944-1.944A.2.2 0 0 0 6 7.983z"/>
</svg>
