<!-- This Source Code Form is subject to the terms of the Mozilla Public
   - License, v. 2.0. If a copy of the MPL was not distributed with this
   - file, You can obtain one at http://mozilla.org/MPL/2.0/. -->
<svg xmlns="http://www.w3.org/2000/svg" viewBox="0 0 16 16" width="16" height="16" fill="context-fill" fill-opacity="context-fill-opacity">
  <path d="M8.25 9.062a.625.625 0 0 1-1.25 0l0-3.437a.625.625 0 0 1 1.25 0l0 3.437z"/>
  <path d="m8 12-.75 0-.25-.25L7 11l.25-.25.75 0 .25.25 0 .75z"/>
  <path d="M7.625 2.25c.133 0 .464.038.657.389l5.497 10a.736.736 0 0 1-.012.743.735.735 0 0 1-.645.368l-10.994 0a.735.735 0 0 1-.645-.368.736.736 0 0 1-.012-.743l5.497-10a.735.735 0 0 1 .657-.389m0-1.25c-.686 0-1.373.346-1.752 1.037l-5.497 10C-.358 13.37.607 15 2.128 15l10.995 0c1.521 0 2.485-1.631 1.752-2.964l-5.497-10A1.982 1.982 0 0 0 7.625 1z"/>
</svg>
