<!-- This Source Code Form is subject to the terms of the Mozilla Public
   - License, v. 2.0. If a copy of the MPL was not distributed with this
   - file, You can obtain one at http://mozilla.org/MPL/2.0/. -->
<svg xmlns="http://www.w3.org/2000/svg" viewBox="0 0 20 20" width="20" height="20" fill="context-fill" fill-opacity="context-fill-opacity">
  <path d="M10.625 3.5a.91.91 0 0 1 .808.472l6.833 12.147c.235.418.073.784-.008.922s-.32.459-.8.459l-13.666 0c-.48 0-.719-.321-.8-.459s-.243-.504-.008-.922L9.817 3.972a.91.91 0 0 1 .808-.472m0-1.5c-.826 0-1.651.412-2.115 1.237L1.677 15.384C.768 17.001 1.936 19 3.792 19l13.665 0c1.856 0 3.025-1.999 2.115-3.616L12.74 3.237A2.402 2.402 0 0 0 10.625 2z"/>
  <path d="M10.75 7a.75.75 0 0 0-.75.75l0 3.5a.75.75 0 0 0 1.5 0l0-3.5a.75.75 0 0 0-.75-.75z"/>
  <path d="m11.2 15-.9 0-.3-.3 0-.9.3-.3.9 0 .3.3 0 .9z"/>
</svg>
