<!-- This Source Code Form is subject to the terms of the Mozilla Public
   - License, v. 2.0. If a copy of the MPL was not distributed with this
   - file, You can obtain one at http://mozilla.org/MPL/2.0/. -->
<svg xmlns="http://www.w3.org/2000/svg" viewBox="0 0 20 20" width="20" height="20" fill="context-fill" fill-opacity="context-fill-opacity">
  <path d="M19.573 15.384 12.74 3.237C12.276 2.412 11.451 2 10.625 2s-1.651.412-2.115 1.237L1.677 15.384C.768 17.001 1.936 19 3.792 19l13.665 0c1.857 0 3.025-1.999 2.116-3.616zM11.5 15.7l-.3.3-.9 0-.3-.3 0-.9.3-.3.9 0 .3.3 0 .9zm0-3.45a.75.75 0 0 1-1.5 0l0-5.5a.75.75 0 0 1 1.5 0l0 5.5z"/>
</svg>
